<svg version="1.2" xmlns="http://www.w3.org/2000/svg" viewBox="0 0 158 108" width="158" height="108">
	<title>New Project</title>
	<defs>
		<linearGradient id="g1" x2="1" gradientUnits="userSpaceOnUse" gradientTransform="matrix(155.804,0,0,107.174,1.525,108.007)">
			<stop offset="0" stop-color="#00fab2"/>
			<stop offset="1" stop-color="#009bff"/>
		</linearGradient>
	</defs>
	<style>
		.s0 { fill: url(#g1) } 
	</style>
	<path id="&lt;Path&gt;" class="s0" d="m31 57.1c0.8 1.1 1.8 1.9 3 2.5q1.6 0 3.2 0 1.3-0.9 2.5-1.7 0 0 0 0c1.7-2.3 1.7-4.5 0.3-6.9-0.5-0.7-1.1-1.3-1.2-2.2-0.8-0.6-1-1.4-0.9-2.3q0 0 0 0-0.1-0.1-0.1-0.3c-1.3-2.8-1.3-5.7 0-8.6q0 0 0 0c0.9-3.6 2.8-6.4 5.8-8.6 1.8-1.7 3.8-2.7 6.3-2.9 2.4-0.9 4.7-0.8 7.1 0 1.8 0 3.3 0.8 4.7 2q0 0 0.1 0 0.6 0.4 1.3 0.8c0.8 0.3 1.4 0.9 1.8 1.7q0 0 0 0 0 0 0 0c0.3 0.2 0.5 0.4 0.7 0.6q6.2 8.7 12.3 17.4c3.8 5.3 7.4 10.7 11.2 15.9 1.9 2.6 5.2 3.1 7.6 1.3 2.5-1.9 3-5.2 1-7.9-1.5-2-2.9-4.2-4.4-6.3-5.7-7.9-11.2-16-16.9-24-3.8-5.3-5-10.9-2.4-17 2.4-5.6 6.8-8.8 12.8-9.6 6.1-0.8 11.3 1.3 15 6.3 4.1 5.5 7.9 11.2 11.8 16.8q10.4 14.9 20.8 29.7c5.9 8.5 11.8 16.9 17.8 25.3 3 4.3 5.7 8.6 5 14.1-0.8 6.1-3.9 10.6-9.5 13.2-3.1 2.1-10 2.1-13.1 0q0 0 0 0-1-0.5-1.9-1c-1-0.1-1.6-0.8-2.2-1.6q0 0 0 0 0 0 0 0c-0.3-0.3-0.7-0.5-1-0.8-2.2-2.4-3.8-5.1-5.7-7.7q-6.7-9.6-13.3-19.2c-2-2.8-5.9-2.9-7.9-1.3-2.2 1.8-2.8 4.9-1.1 7.5 1.2 1.9 2.1 3.9 2.6 6 1.6 7.3-2.9 15.8-9.5 18.1-0.8 0.8-1.9 1-2.9 0.9-2.3 0.9-4.5 0.9-6.8 0.1q0 0 0 0h-0.1l-0.1-0.1c-1.2 0.2-2.1-0.2-3-0.9q0 0 0 0c-2.9-1.2-5.2-3.1-6.9-5.8-1.4-1.5-2.7-3.1-3.5-5.1q0 0 0 0 0 0 0 0-0.5-0.6-0.9-1.3c-1.1-0.7-1.6-1.7-2-2.8q0 0 0 0c-1.6-2.2-3.2-4.3-4.7-6.5-3.8-5.4-7.6-10.8-11.5-16.2-1.4-2-3.7-2.5-5.9-1.7-2.6 0.9-3.7 2.8-3.6 6.2 0.6 1.2 1.5 2.2 1.9 3.5 0.9 0.7 1.4 1.6 1.8 2.6q0 0 0 0 0 0 0 0c0.7 1 1.4 1.9 2.1 2.9 5.9 8 2.8 20.4-6.8 24.2-0.8 0.8-1.8 1-2.9 0.9-2.2 0.9-4.5 1-6.7 0.1q0 0 0 0h-0.2l-0.1-0.1c-1.1 0.1-2.1-0.1-2.9-0.9q0 0 0 0c-3.1-1.1-5.3-3.2-7.1-5.8q-8.6-12.1-17-24.3c-3.9-5.6-4.4-11.7-1-17.6 6.1-10.3 19.9-11 27.2-1.6z"/>
</svg>